<svg xmlns="http://www.w3.org/2000/svg" viewBox="0 0 1762.000000 1400.000000">
  <g transform="translate(0.000000,1400.000000) scale(0.100000,-0.100000)" fill="#fff" stroke="none">
    <path d="M12985 13989 c-936 -65 -1844 -495 -2473 -1172 -578 -621 -911 -1344 -1014 -2202 -8 -75 -13 -968 -17 -3550 l-6 -3450 -22 -77 c-104 -366 -351 -611 -711 -710 -107 -29 -354 -31 -457 -4 -359 95 -615 350 -718 714 l-22 77 -5 2035 c-7 2225 -4 2124 -66 2458 -136 739 -479 1405 -999 1941 -632 651 -1458 1048 -2355 1132 -190 18 -552 15 -738 -5 -672 -73 -1273 -303 -1823 -697 -171 -123 -318 -250 -482 -418 -293 -300 -492 -583 -682 -966 -231 -467 -349 -904 -385 -1431 -6 -97 -10 -1468 -10 -3906 l0 -3758 1400 0 1400 0 2 3798 3 3797 23 80 c80 284 269 508 535 636 142 67 217 83 407 83 139 0 178 -4 245 -22 163 -45 322 -137 441 -256 118 -119 210 -276 256 -441 l23 -80 5 -2040 c7 -2231 4 -2128 66 -2463 117 -635 385 -1211 801 -1721 109 -133 388 -412 513 -513 828 -666 1850 -957 2890 -822 1209 156 2292 922 2849 2014 179 351 285 663 355 1042 58 312 59 336 63 1466 l4 1042 2370 0 2369 0 0 1400 0 1400 -2370 0 -2371 0 3 998 3 997 23 80 c46 165 138 322 256 441 119 118 276 210 441 256 l80 23 2268 3 2267 2 0 1400 0 1400 -2257 -1 c-1242 -1 -2312 -6 -2378 -10z"/>
  </g>
</svg>
